<svg width="29" height="28" viewBox="0 0 29 28" fill="none" xmlns="http://www.w3.org/2000/svg">
<path d="M12.3947 1.00952C13.0817 -0.336504 15.005 -0.336503 15.6921 1.00952L19.1685 7.8203C19.3587 8.1929 19.6695 8.49009 20.0502 8.66343L27.0027 11.8289C28.4481 12.4869 28.4481 14.5401 27.0027 15.1982L20.0502 18.3636C19.6695 18.537 19.3587 18.8342 19.1685 19.2067L15.6921 26.0175C15.005 27.3636 13.0817 27.3636 12.3947 26.0175L8.91823 19.2067C8.72805 18.8342 8.41727 18.537 8.03654 18.3636L1.084 15.1982C-0.361393 14.5401 -0.361392 12.4869 1.08401 11.8289L8.03654 8.66343C8.41727 8.49009 8.72805 8.1929 8.91823 7.8203L12.3947 1.00952Z" fill="#00AA00"/>
</svg>
