<svg width="63" height="74" viewBox="0 0 63 74" fill="none" xmlns="http://www.w3.org/2000/svg">
<path d="M29.7442 1.15828C30.3675 -0.386092 32.554 -0.386094 33.1773 1.15828L42.0593 23.1655C42.2143 23.5494 42.4934 23.8703 42.8522 24.0769L61.994 35.0989C63.2305 35.8109 63.2305 37.5952 61.994 38.3072L42.8522 49.3292C42.4934 49.5358 42.2143 49.8567 42.0593 50.2406L33.1773 72.2478C32.554 73.7922 30.3675 73.7922 29.7442 72.2478L20.8622 50.2406C20.7073 49.8567 20.4281 49.5358 20.0693 49.3292L0.927485 38.3072C-0.309031 37.5952 -0.309027 35.8109 0.927489 35.0989L20.0693 24.0769C20.4281 23.8703 20.7073 23.5494 20.8622 23.1655L29.7442 1.15828Z" fill="#FFAA00"/>
</svg>
