<svg width="51" height="59" viewBox="0 0 51 59" fill="none" xmlns="http://www.w3.org/2000/svg">
<path d="M23.2918 1.16444C23.912 -0.38814 26.1097 -0.388141 26.7298 1.16444L33.5045 18.1253C33.6579 18.5092 33.9353 18.8307 34.2927 19.0386L49.1013 27.6545C50.3282 28.3683 50.3282 30.1406 49.1013 30.8544L34.2927 39.4702C33.9353 39.6781 33.6579 39.9997 33.5045 40.3836L26.7298 57.3444C26.1097 58.897 23.912 58.897 23.2918 57.3444L16.5171 40.3836C16.3638 39.9997 16.0863 39.6781 15.729 39.4702L0.920389 30.8544C-0.306523 30.1406 -0.306523 28.3683 0.920389 27.6545L15.729 19.0386C16.0863 18.8307 16.3638 18.5092 16.5171 18.1253L23.2918 1.16444Z" fill="#5555FF"/>
</svg>
