<svg width="38" height="38" viewBox="0 0 38 38" fill="none" xmlns="http://www.w3.org/2000/svg">
<circle cx="18.5739" cy="18.5739" r="18.5739" fill="#5555FD"/>
<path opacity="0.16" d="M10.1252 22.1852L9.02881 26.5707L13.4143 25.4743L24.3781 14.5106L21.089 11.2214L10.1252 22.1852Z" fill="white"/>
<path d="M21.089 11.2217L24.3781 14.5108M18.8962 26.571H27.6672M10.1252 22.1855L9.02881 26.571L13.4143 25.4746L26.1169 12.772C26.528 12.3608 26.7589 11.8031 26.7589 11.2217C26.7589 10.6402 26.528 10.0826 26.1169 9.67141L25.9284 9.48283C25.5172 9.07175 24.9595 8.84082 24.3781 8.84082C23.7966 8.84082 23.239 9.07175 22.8278 9.48283L10.1252 22.1855Z" stroke="white" stroke-width="2.19275" stroke-linecap="round" stroke-linejoin="round"/>
</svg>
