<svg width="41" height="40" viewBox="0 0 41 40" fill="none" xmlns="http://www.w3.org/2000/svg">
<path d="M4.64817 40C3.36993 40 2.27606 39.5652 1.36656 38.6955C0.45707 37.8259 0.00154939 36.7792 0 35.5555V4.44444C0 3.22222 0.455521 2.17629 1.36656 1.30667C2.27761 0.437037 3.37147 0.00148148 4.64817 0H18.5927C19.2512 0 19.8035 0.213333 20.2498 0.64C20.696 1.06667 20.9183 1.59407 20.9168 2.22222C20.9152 2.85037 20.6921 3.37852 20.2474 3.80666C19.8028 4.23481 19.2512 4.4474 18.5927 4.44444H4.64817V35.5555H18.5927C19.2512 35.5555 19.8035 35.7689 20.2498 36.1955C20.696 36.6222 20.9183 37.1496 20.9168 37.7778C20.9152 38.4059 20.6921 38.934 20.2474 39.3622C19.8028 39.7903 19.2512 40.0029 18.5927 40H4.64817ZM32.9439 22.2222H16.2686C15.6101 22.2222 15.0585 22.0089 14.6139 21.5822C14.1692 21.1555 13.9461 20.6281 13.9445 20C13.943 19.3718 14.1661 18.8444 14.6139 18.4178C15.0616 17.9911 15.6132 17.7778 16.2686 17.7778H32.9439L28.5863 13.6111C28.1602 13.2037 27.9471 12.7037 27.9471 12.1111C27.9471 11.5185 28.1602 11 28.5863 10.5555C29.0123 10.1111 29.5546 9.87925 30.2131 9.85999C30.8716 9.84073 31.4333 10.0541 31.8981 10.5L40.2067 18.4444C40.6715 18.8889 40.9039 19.4074 40.9039 20C40.9039 20.5926 40.6715 21.1111 40.2067 21.5555L31.8981 29.5C31.4333 29.9444 30.8817 30.1578 30.2433 30.14C29.605 30.1222 29.0526 29.8903 28.5863 29.4444C28.1602 29 27.9572 28.4726 27.9774 27.8622C27.9975 27.2518 28.2198 26.7422 28.6444 26.3333L32.9439 22.2222Z" fill="white"/>
</svg>
