<svg width="74" height="74" viewBox="0 0 74 74" fill="none" xmlns="http://www.w3.org/2000/svg">
<path fill-rule="evenodd" clip-rule="evenodd" d="M36.8663 49.1543C42.5698 49.1543 48.0396 46.8887 52.0726 42.8557C56.1056 38.8227 58.3713 33.3529 58.3713 27.6494C58.3713 21.9459 56.1056 16.476 52.0726 12.4431C48.0396 8.4101 42.5698 6.14441 36.8663 6.14441C31.1628 6.14441 25.693 8.4101 21.66 12.4431C17.627 16.476 15.3613 21.9459 15.3613 27.6494C15.3613 33.3529 17.627 38.8227 21.66 42.8557C25.693 46.8887 31.1628 49.1543 36.8663 49.1543ZM36.8663 18.433C35.9938 18.433 35.4101 19.4775 34.2427 21.5758L33.9416 22.1165C33.6098 22.7125 33.4439 23.0074 33.1859 23.204C32.9247 23.4006 32.6022 23.4743 31.957 23.6187L31.3733 23.7539C29.1061 24.267 27.9725 24.5219 27.7021 25.3883C27.4318 26.2546 28.2059 27.1609 29.7512 28.9673L30.1506 29.4343C30.5899 29.9473 30.8111 30.2023 30.9094 30.5218C31.0077 30.8413 30.9739 31.1823 30.9094 31.8674L30.848 32.4911C30.6145 34.9027 30.4978 36.1101 31.2013 36.6446C31.9079 37.1792 32.9708 36.6907 35.0937 35.7137L35.6405 35.4618C36.2457 35.1853 36.5468 35.0471 36.8663 35.0471C37.1858 35.0471 37.4869 35.1853 38.0921 35.4618L38.6389 35.7137C40.7618 36.6938 41.8247 37.1792 42.5313 36.6446C43.2379 36.1101 43.1181 34.9027 42.8846 32.4911L42.8232 31.8674C42.7587 31.1823 42.7249 30.8413 42.8232 30.5218C42.9215 30.2023 43.1427 29.9473 43.582 29.4343L43.9814 28.9673C45.5267 27.1609 46.3008 26.2577 46.0305 25.3883C45.7601 24.5219 44.6265 24.267 42.3593 23.7539L41.7756 23.6187C41.1304 23.4743 40.8078 23.4037 40.5467 23.204C40.2887 23.0074 40.1228 22.7125 39.791 22.1165L39.4899 21.5758C38.3225 19.4775 37.7388 18.433 36.8663 18.433Z" fill="#FFAA00"/>
<path d="M13.8086 39.9225L9.19115 44.6997C7.53219 46.4201 6.70271 47.2772 6.41393 48.0053C5.75957 49.6643 6.32177 51.5014 7.74417 52.3739C8.37088 52.7548 9.49529 52.8746 11.7533 53.1112C13.0252 53.2464 13.6642 53.314 14.1957 53.5198C15.3907 53.9775 16.3154 54.9391 16.7609 56.1741C16.9575 56.7271 17.022 57.3845 17.1511 58.7025C17.3815 61.0373 17.4982 62.2047 17.8669 62.8529C18.7086 64.3276 20.4874 64.9082 22.088 64.2293C22.7884 63.9343 23.6179 63.0741 25.2799 61.3568L32.905 53.4614C28.8877 52.846 25.0694 51.3013 21.7542 48.9503C18.439 46.5994 15.7183 43.5101 13.8086 39.9225ZM40.828 53.4645L48.4531 61.3599C50.112 63.0803 50.9415 63.9374 51.642 64.2354C53.2425 64.9113 55.0213 64.3306 55.8631 62.856C56.2317 62.2109 56.3454 61.0435 56.5758 58.7086C56.7079 57.3876 56.7724 56.7302 56.969 56.1772C57.4114 54.9422 58.3392 53.9806 59.5343 53.5229C60.0658 53.317 60.7017 53.2525 61.9766 53.1173C64.2316 52.8777 65.3591 52.7579 65.9858 52.377C67.4082 51.5045 67.9704 49.6643 67.316 48.0084C67.0272 47.2803 66.1978 46.4201 64.5388 44.7028L59.9214 39.9225C58.0117 43.5101 55.291 46.6024 51.9757 48.9534C48.6605 51.3043 44.8423 52.849 40.825 53.4645" fill="#ED2428"/>
</svg>
