<svg width="93" height="93" viewBox="0 0 93 93" fill="none" xmlns="http://www.w3.org/2000/svg">
<rect x="1.71053" y="1.71053" width="88.9474" height="88.9474" rx="44.4737" fill="#ED2428"/>
<rect x="1.71053" y="1.71053" width="88.9474" height="88.9474" rx="44.4737" stroke="#F8DB22" stroke-width="3.42105"/>
<path d="M49.423 63.4916C57.881 63.3938 62.7888 57.8442 62.6818 48.5841L62.6373 44.7356C62.5965 41.2079 60.8673 39.0827 58.9628 39.1048C58.5223 39.1098 58.3043 39.333 58.3091 39.7538L58.3288 41.4574C58.3381 42.2596 57.922 42.6655 57.4413 42.6711C56.9197 42.6771 56.5148 42.2806 56.5055 41.4784L56.4925 40.3564C56.4687 38.2919 55.1103 36.9443 53.3254 36.9649C52.5044 36.9744 52.1475 37.3198 52.1554 38.0014L52.1822 40.3258C52.1915 41.128 51.7942 41.5337 51.3136 41.5393C50.7919 41.5453 50.3673 41.1482 50.3581 40.3469L50.3333 38.2021C50.3064 35.8776 48.9305 34.791 47.2064 34.8109C46.4247 34.82 46.0287 35.1855 46.0363 35.8465L46.0889 40.3962C46.0982 41.1984 45.6812 41.6044 45.2005 41.6099C44.6789 41.616 44.274 41.2187 44.2647 40.4173L44.0868 25.0236C44.0697 23.5407 43.0759 22.5891 41.8333 22.6034C40.4906 22.619 39.5593 23.5928 39.5765 25.0757L39.8405 47.926C39.8466 48.4477 39.5291 48.731 39.2084 48.7347C38.868 48.7387 38.6243 48.5217 38.3791 48.0233L34.8611 40.2463C34.2435 38.9097 33.0168 38.5228 31.9595 38.9558C30.9413 39.3687 30.2738 40.5995 30.8526 42.0563L34.7977 52.154C38.0839 60.5956 42.9687 63.5662 49.423 63.4916Z" fill="white"/>
</svg>
